<?xml version="1.0" encoding="UTF-8"?>
<svg width="752pt" height="752pt" version="1.1" viewBox="0 0 752 752" xmlns="http://www.w3.org/2000/svg">
 <path d="m567.58 273.1c-8.418-9.8438-20.727-15.508-33.684-15.496h-268.22l-6.1289-34.734c-1.207-6.8555-4.7891-13.062-10.121-17.539-5.332-4.4727-12.07-6.9258-19.031-6.9219h-46.781c-5.2891 0-10.172 2.8203-12.816 7.3984s-2.6445 10.219 0 14.801c2.6445 4.5781 7.5273 7.3984 12.816 7.3984h46.781l37.93 214.92c1.8438 10.473 7.4023 19.934 15.66 26.637-7.4414 9.1016-11.527 20.48-11.574 32.234 0 18.504 9.8711 35.605 25.898 44.859 16.027 9.25 35.77 9.25 51.797 0 16.027-9.2539 25.898-26.355 25.898-44.859-0.042969-7.6953-1.8164-15.285-5.1914-22.199h84.355c-3.3672 6.918-5.1328 14.504-5.1641 22.199-0.16016 16.902 7.9375 32.82 21.695 42.645 13.758 9.8203 31.441 12.312 47.379 6.6719 15.934-5.6367 28.117-18.699 32.633-34.988 4.5195-16.289 0.80469-33.758-9.9531-46.797 8.332-6.9258 13.828-16.668 15.453-27.379l20.496-133.2c2.0039-12.793-1.6953-25.824-10.125-35.652zm-221.18 228.7c0 5.8867-2.3398 11.535-6.5 15.695-4.1641 4.1641-9.8125 6.5039-15.699 6.5039s-11.535-2.3398-15.695-6.5039c-4.1641-4.1602-6.5039-9.8086-6.5039-15.695s2.3398-11.535 6.5039-15.699c4.1602-4.1602 9.8086-6.5 15.695-6.5s11.535 2.3398 15.699 6.5c4.1602 4.1641 6.5 9.8125 6.5 15.699zm155.39 22.199c-5.8867 0-11.535-2.3398-15.699-6.5039-4.1602-4.1602-6.5-9.8086-6.5-15.695s2.3398-11.535 6.5-15.699c4.1641-4.1602 9.8125-6.5 15.699-6.5s11.535 2.3398 15.695 6.5c4.1641 4.1641 6.5039 9.8125 6.5039 15.699s-2.3398 11.535-6.5039 15.695c-4.1602 4.1641-9.8086 6.5039-15.695 6.5039zm26.223-86.547c-0.53516 3.4922-2.3047 6.6797-4.9883 8.9805-2.6797 2.3008-6.0977 3.5664-9.6328 3.5703h-201.36c-3.4805 0.003906-6.8555-1.2188-9.5234-3.457-2.668-2.2344-4.4648-5.3398-5.0703-8.7695l-26.52-150.57h262.97c4.3203 0.003906 8.418 1.8906 11.23 5.168 2.8086 3.2773 4.0508 7.6172 3.3945 11.883z"/>
</svg>
