<?xml version="1.0" encoding="UTF-8"?>
<svg width="752pt" height="752pt" version="1.1" viewBox="0 0 752 752" xmlns="http://www.w3.org/2000/svg">
 <path d="m571.12 558.55-110.21-110.21c25.508-29.367 40.996-67.652 40.996-109.51 0-92.215-75.023-167.25-167.25-167.25-92.215 0.003906-167.24 75.039-167.24 167.25s75.023 167.24 167.24 167.24c41.855 0 80.141-15.492 109.5-40.996l110.21 110.21c2.3125 2.3125 5.3438 3.4648 8.3711 3.4648 3.0273 0 6.0586-1.1562 8.3633-3.4648 4.6328-4.6211 4.6328-12.117 0.003906-16.742zm-380.02-219.71c0-79.164 64.402-143.57 143.56-143.57 79.164 0 143.57 64.406 143.57 143.57 0 79.16-64.402 143.56-143.57 143.56-79.16-0.003907-143.56-64.406-143.56-143.56z"/>
</svg>
